<?xml version="1.0" encoding="iso-8859-1"?>
<!-- Uploaded to: SVG Repo, www.svgrepo.com, Generator: SVG Repo Mixer Tools -->
<svg height="800px" width="800px" version="1.1" id="Layer_1" xmlns="http://www.w3.org/2000/svg" xmlns:xlink="http://www.w3.org/1999/xlink" 
	 viewBox="0 0 511.874 511.874" xml:space="preserve">
<path style="fill:#FDC693;" d="M505.821,345.647c7.062-5.297,7.945-15.89,2.648-22.952c-11.476-15.007-20.303-19.421-58.262,0.883
	l-76.8,46.786c-23.835,12.359-84.745,8.828-111.228,8.828c0,0,62.676,4.414,37.959-32.662
	c-12.359-18.538-33.545-29.131-56.497-29.131h-34.428c-20.303,0-39.724-6.179-55.614-17.655
	c-37.959-29.131-109.462,26.483-109.462,26.483v158.897h123.586c17.655,0,35.31-1.766,52.966-4.414l114.759-17.655
	c3.531,0,7.945-0.883,11.476-0.883l0,0c9.71-0.883,17.655-6.179,24.717-12.359L505.821,345.647z"/>
<polygon style="fill:#2772C8;" points="0,511.606 44.138,511.606 44.138,299.744 0,299.744 "/>
<path style="fill:#24AE5F;" d="M114.759,292.682c14.124-2.648,28.248-1.766,38.841,7.062c15.89,12.359,36.193,17.655,55.614,17.655
	h34.428c22.069,0,43.255,10.593,56.497,29.131c18.538,28.248-12.359,32.662-28.248,32.662l0,0h52.083
	c20.303-0.883,39.724-2.648,50.317-8.828l50.317-30.897V158.502h44.138L308.966,15.496c-22.952-20.303-58.262-20.303-81.214,0
	L69.738,158.502h45.021V292.682z"/>
<g>
	<path style="fill:#F0C419;" d="M247.172,140.847c0-15.007-11.476-26.483-26.483-26.483c-15.007,0-26.483,11.476-26.483,26.483
		s11.476,26.483,26.483,26.483C235.697,167.33,247.172,155.854,247.172,140.847"/>
	<path style="fill:#F0C419;" d="M353.103,246.778c0-15.007-11.476-26.483-26.483-26.483s-26.483,11.476-26.483,26.483
		s11.476,26.483,26.483,26.483S353.103,261.785,353.103,246.778"/>
	<path style="fill:#F0C419;" d="M194.207,282.089c-2.648,0-4.414-0.883-6.179-2.648c-3.531-3.531-3.531-8.828,0-12.359
		l158.897-158.897c3.531-3.531,8.828-3.531,12.359,0c3.531,3.531,3.531,8.828,0,12.359L200.386,279.44
		C198.621,281.206,196.855,282.089,194.207,282.089"/>
</g>
<path style="fill:#F9A571;" d="M141.241,414.502c-5.297,0-8.828-3.531-8.828-8.828c0-22.069,16.772-35.31,44.138-35.31h97.103
	c5.297,0,8.828,3.531,8.828,8.828s-3.531,8.828-8.828,8.828h-97.103c-26.483,0-26.483,13.241-26.483,17.655
	C150.069,410.971,146.538,414.502,141.241,414.502"/>
</svg>